<svg width="400" height="440" viewBox="0 0 400 440" xmlns="http://www.w3.org/2000/svg">
  <defs>
    <radialGradient id="bg" cx="50%" cy="42%" r="65%">
      <stop offset="0%" stop-color="#f2f0ff"/>
      <stop offset="100%" stop-color="#dce8f8"/>
    </radialGradient>
  </defs>
  <rect width="400" height="500" fill="url(#bg)" rx="20"/>
  <circle cx="200" cy="230" r="155" fill="none" stroke="rgba(155,143,232,0.12)" stroke-width="1"/>
  <circle cx="200" cy="230" r="110" fill="none" stroke="rgba(122,176,240,0.08)" stroke-width="0.8"/>
  <line x1="200" y1="55" x2="200" y2="430" stroke="rgba(155,148,225,0.4)" stroke-width="2" stroke-linecap="round"/>
  <!-- Strand 1 lavender -->
  <path d="M200,65 C178,83 178,107 200,125 C222,143 222,167 200,185 C178,203 178,227 200,245 C222,263 222,287 200,305 C178,323 178,347 200,365 C222,383 222,400 200,415" fill="none" stroke="#a0a0e8" stroke-width="5" stroke-linecap="round" opacity="0.72"/>
  <!-- Strand 2 blue -->
  <path d="M200,65 C222,83 222,107 200,125 C178,143 178,167 200,185 C222,203 222,227 200,245 C178,263 178,287 200,305 C222,323 222,347 200,365 C178,383 178,400 200,415" fill="none" stroke="#88b8f0" stroke-width="5" stroke-linecap="round" opacity="0.72"/>
  <!-- Highlights -->
  <path d="M200,65 C180,82 179,105 200,123 C221,141 221,165 200,183 C179,201 179,225 200,243" fill="none" stroke="rgba(255,255,255,0.35)" stroke-width="2" stroke-linecap="round"/>
  <path d="M200,65 C220,82 221,105 200,123 C179,141 179,165 200,183 C221,201 221,225 200,243" fill="none" stroke="rgba(255,255,255,0.35)" stroke-width="2" stroke-linecap="round"/>
  <!-- Cross rungs -->
  <g stroke="rgba(175,168,228,0.32)" stroke-width="1.2" stroke-linecap="round">
    <line x1="182" y1="95" x2="218" y2="95"/>
    <line x1="182" y1="155" x2="218" y2="155"/>
    <line x1="182" y1="215" x2="218" y2="215"/>
    <line x1="182" y1="275" x2="218" y2="275"/>
    <line x1="182" y1="335" x2="218" y2="335"/>
    <line x1="182" y1="390" x2="218" y2="390"/>
  </g>
  <!-- Top sparkle -->
  <g transform="translate(200,58)">
    <line x1="0" y1="-18" x2="0" y2="18" stroke="white" stroke-width="1.8" stroke-linecap="round" opacity="0.92"/>
    <line x1="-18" y1="0" x2="18" y2="0" stroke="white" stroke-width="1.8" stroke-linecap="round" opacity="0.92"/>
    <line x1="-12" y1="-12" x2="12" y2="12" stroke="white" stroke-width="1.1" stroke-linecap="round" opacity="0.7"/>
    <line x1="12" y1="-12" x2="-12" y2="12" stroke="white" stroke-width="1.1" stroke-linecap="round" opacity="0.7"/>
    <circle r="5.5" fill="white" opacity="0.96"/>
    <circle r="14" fill="white" opacity="0.12"/>
  </g>
  <!-- Bottom sparkle -->
  <g transform="translate(200,422)">
    <line x1="0" y1="-14" x2="0" y2="14" stroke="white" stroke-width="1.6" stroke-linecap="round" opacity="0.88"/>
    <line x1="-14" y1="0" x2="14" y2="0" stroke="white" stroke-width="1.6" stroke-linecap="round" opacity="0.88"/>
    <line x1="-9" y1="-9" x2="9" y2="9" stroke="white" stroke-width="1" stroke-linecap="round" opacity="0.68"/>
    <line x1="9" y1="-9" x2="-9" y2="9" stroke="white" stroke-width="1" stroke-linecap="round" opacity="0.68"/>
    <circle r="4.5" fill="white" opacity="0.92"/>
  </g>
  <!-- Crown violet -->
  <g transform="translate(200,95)">
    <circle r="22" fill="rgba(175,125,238,0.22)" stroke="rgba(185,140,240,0.6)" stroke-width="1.5"/>
    <circle r="15" fill="rgba(195,155,250,0.35)" stroke="rgba(205,168,252,0.7)" stroke-width="1"/>
    <circle r="9" fill="rgba(215,185,255,0.65)" stroke="rgba(225,200,255,0.85)" stroke-width="1"/>
    <polygon points="0,-6 5.2,3 -5.2,3" fill="none" stroke="white" stroke-width="1" opacity="0.8"/>
    <circle r="3.5" fill="white" opacity="0.95"/>
  </g>
  <!-- Third eye indigo -->
  <g transform="translate(200,155)">
    <circle r="20" fill="rgba(75,95,218,0.2)" stroke="rgba(95,115,222,0.56)" stroke-width="1.5"/>
    <circle r="13" fill="rgba(95,115,228,0.32)" stroke="rgba(118,138,232,0.67)" stroke-width="1"/>
    <circle r="8" fill="rgba(128,148,240,0.6)" stroke="rgba(148,168,242,0.8)" stroke-width="1"/>
    <polygon points="0,-5.5 4.8,2.8 -4.8,2.8" fill="none" stroke="white" stroke-width="1" opacity="0.8"/>
    <circle r="3" fill="white" opacity="0.95"/>
  </g>
  <!-- Throat cyan -->
  <g transform="translate(200,215)">
    <circle r="20" fill="rgba(55,158,218,0.2)" stroke="rgba(75,168,222,0.56)" stroke-width="1.5"/>
    <circle r="13" fill="rgba(75,168,225,0.32)" stroke="rgba(98,182,228,0.67)" stroke-width="1"/>
    <circle r="8" fill="rgba(105,188,235,0.6)" stroke="rgba(125,202,238,0.8)" stroke-width="1"/>
    <polygon points="0,-5.5 4.8,2.8 -4.8,2.8" fill="none" stroke="white" stroke-width="1" opacity="0.8"/>
    <circle r="3" fill="white" opacity="0.95"/>
  </g>
  <!-- Heart green -->
  <g transform="translate(200,275)">
    <circle r="22" fill="rgba(55,178,98,0.2)" stroke="rgba(75,188,108,0.56)" stroke-width="1.5"/>
    <circle r="15" fill="rgba(78,192,112,0.32)" stroke="rgba(98,205,125,0.67)" stroke-width="1"/>
    <circle r="9" fill="rgba(105,210,132,0.6)" stroke="rgba(125,220,145,0.8)" stroke-width="1"/>
    <polygon points="0,-6 5.2,3 -5.2,3" fill="none" stroke="white" stroke-width="1" opacity="0.8"/>
    <circle r="3.5" fill="white" opacity="0.95"/>
  </g>
  <!-- Solar plexus yellow -->
  <g transform="translate(200,335)">
    <circle r="20" fill="rgba(228,198,38,0.2)" stroke="rgba(232,205,50,0.56)" stroke-width="1.5"/>
    <circle r="13" fill="rgba(236,212,56,0.32)" stroke="rgba(240,220,70,0.67)" stroke-width="1"/>
    <circle r="8" fill="rgba(244,225,78,0.65)" stroke="rgba(248,232,95,0.8)" stroke-width="1"/>
    <polygon points="0,-5.5 4.8,2.8 -4.8,2.8" fill="none" stroke="white" stroke-width="1" opacity="0.8"/>
    <circle r="3" fill="white" opacity="0.95"/>
  </g>
  <!-- Root red -->
  <g transform="translate(200,390)">
    <circle r="20" fill="rgba(208,48,58,0.2)" stroke="rgba(215,60,70,0.56)" stroke-width="1.5"/>
    <circle r="13" fill="rgba(220,68,78,0.32)" stroke="rgba(225,82,90,0.67)" stroke-width="1"/>
    <circle r="8" fill="rgba(230,88,96,0.62)" stroke="rgba(235,102,108,0.8)" stroke-width="1"/>
    <polygon points="0,-5.5 4.8,2.8 -4.8,2.8" fill="none" stroke="white" stroke-width="1" opacity="0.8"/>
    <circle r="3" fill="white" opacity="0.95"/>
  </g>
  <!-- Ambient sparkles -->
  <g opacity="0.5">
    <g transform="translate(118,168)"><line x1="-8" y1="0" x2="8" y2="0" stroke="#c0b8f2" stroke-width="1"/><line x1="0" y1="-8" x2="0" y2="8" stroke="#c0b8f2" stroke-width="1"/><circle r="2.2" fill="#d0c8ff"/></g>
    <g transform="translate(282,168)"><line x1="-8" y1="0" x2="8" y2="0" stroke="#b8c8f2" stroke-width="1"/><line x1="0" y1="-8" x2="0" y2="8" stroke="#b8c8f2" stroke-width="1"/><circle r="2.2" fill="#c8d4ff"/></g>
    <g transform="translate(100,270)"><line x1="-7" y1="0" x2="7" y2="0" stroke="#c0b8f2" stroke-width="1"/><line x1="0" y1="-7" x2="0" y2="7" stroke="#c0b8f2" stroke-width="1"/><circle r="2" fill="#d0c8ff"/></g>
    <g transform="translate(300,270)"><line x1="-7" y1="0" x2="7" y2="0" stroke="#b8c8f2" stroke-width="1"/><line x1="0" y1="-7" x2="0" y2="7" stroke="#b8c8f2" stroke-width="1"/><circle r="2" fill="#c8d4ff"/></g>
    <circle cx="148" cy="112" r="2" fill="#d0c8f8" opacity="0.6"/>
    <circle cx="252" cy="112" r="2" fill="#d0c8f8" opacity="0.6"/>
    <circle cx="108" cy="215" r="1.5" fill="#c8d4f8" opacity="0.5"/>
    <circle cx="292" cy="215" r="1.5" fill="#c8d4f8" opacity="0.5"/>
  </g>
</svg>
